<svg width="41" height="41" viewBox="0 0 41 41" fill="none" xmlns="http://www.w3.org/2000/svg">
<path d="M12.244 40.48C9.78 40.48 7.85867 39.8493 6.48 38.588C5.13067 37.356 4.456 35.6253 4.456 33.396V25.696C4.456 24.8747 4.26533 24.244 3.884 23.804C3.50267 23.3347 2.93067 23.1 2.168 23.1H0.804V18.04H2.168C2.93067 18.04 3.50267 17.8053 3.884 17.336C4.26533 16.8667 4.456 16.236 4.456 15.444V7.26C4.456 5.06 5.13067 3.344 6.48 2.112C7.85867 0.850664 9.78 0.219997 12.244 0.219997H14.268V5.28H12.244C11.628 5.28 11.144 5.47066 10.792 5.852C10.44 6.204 10.2787 6.71733 10.308 7.392V14.96C10.308 16.1333 10.0733 17.204 9.604 18.172C9.164 19.1107 8.51867 19.888 7.668 20.504C8.51867 21.0027 9.164 21.7213 9.604 22.66C10.0733 23.5987 10.308 24.64 10.308 25.784V33.264C10.2787 33.9093 10.44 34.4227 10.792 34.804C11.144 35.2147 11.628 35.42 12.244 35.42H14.268V40.48H12.244ZM26.5956 40.48V35.42H28.6196C29.2356 35.42 29.7196 35.2147 30.0716 34.804C30.4236 34.4227 30.5996 33.9093 30.5996 33.264V25.784C30.5702 24.64 30.7756 23.5987 31.2156 22.66C31.6849 21.7213 32.3449 21.0027 33.1956 20.504C32.3449 19.888 31.6849 19.1107 31.2156 18.172C30.7756 17.204 30.5702 16.1333 30.5996 14.96V7.392C30.5996 6.71733 30.4236 6.204 30.0716 5.852C29.7196 5.47066 29.2356 5.28 28.6196 5.28H26.5956V0.219997H28.6196C31.1129 0.219997 33.0342 0.850664 34.3836 2.112C35.7329 3.344 36.4076 5.06 36.4076 7.26V15.444C36.4076 16.236 36.5982 16.8667 36.9796 17.336C37.3902 17.8053 37.9622 18.04 38.6956 18.04H40.0596V23.1H38.6956C37.9622 23.1 37.3902 23.3347 36.9796 23.804C36.5982 24.244 36.4076 24.8747 36.4076 25.696V33.396C36.4076 35.6253 35.7329 37.356 34.3836 38.588C33.0342 39.8493 31.1129 40.48 28.6196 40.48H26.5956Z" fill="#7E74F1"/>
</svg>
