<svg width="45" height="47" viewBox="0 0 45 47" fill="none" xmlns="http://www.w3.org/2000/svg">
<path d="M44.1461 14.4963L23.5797 0.336136C22.8777 -0.110001 22.1285 -0.114085 21.4201 0.336136L0.853768 14.4963C0.326425 14.8593 0 15.5078 0 16.1561V30.3162C0 30.9645 0.326425 31.6129 0.853856 31.976L21.4202 46.1382C22.1222 46.5843 22.8714 46.5884 23.5798 46.1382L44.1461 31.976C44.6735 31.613 45 30.9645 45 30.3162V16.1561C44.9999 15.5078 44.6735 14.8593 44.1461 14.4963ZM24.4335 5.73035L39.5758 16.1561L32.8208 20.8243L24.4335 15.0409V5.73035ZM20.5664 5.73035V15.0409L12.1791 20.8243L5.42407 16.1561L20.5664 5.73035ZM3.86718 19.8906L8.71372 23.2362L3.86718 26.5817V19.8906ZM20.5664 40.742L5.42407 30.3163L12.1791 25.648L20.5664 31.4315V40.742ZM22.5 27.9562L15.6695 23.2362L22.5 18.5161L29.3304 23.2362L22.5 27.9562ZM24.4335 40.742V31.4315L32.8208 25.648L39.5758 30.3163L24.4335 40.742ZM41.1327 26.5817L36.2862 23.2362L41.1327 19.8906V26.5817Z" fill="#27AE60"/>
</svg>
